<svg width="181" height="34" viewBox="0 0 181 34" fill="none" xmlns="http://www.w3.org/2000/svg">
<path fill-rule="evenodd" clip-rule="evenodd" d="M24.015 0.0390056C19.1586 1.48908 14.7416 1.47609 9.87732 0C7.4947 4.40374 4.40399 7.49428 0 9.87679C1.47611 14.7409 1.48925 19.1578 0.0394326 24.0138C4.46583 26.417 7.56264 29.5398 9.94764 34C14.7605 32.5522 19.1391 32.5393 23.9442 33.9613C26.3497 29.4783 29.4786 26.3493 33.9613 23.9438C32.5393 19.1384 32.5524 14.7596 34.0005 9.94643C29.5406 7.56156 26.418 4.46496 24.015 0.0390056ZM17.0004 29.1431C18.6251 19.9419 19.9421 18.6248 29.1432 17.0001C19.9421 15.3754 18.6251 14.0583 17.0004 4.85709C15.3756 14.0583 14.0586 15.3754 4.85721 17.0001C14.0586 18.6248 15.3756 19.9419 17.0004 29.1431Z" fill="#B14AB3"/>
<path d="M177.206 9.88361V20.5503C177.206 21.1146 177.347 21.5379 177.628 21.8201C177.909 22.1023 178.281 22.2434 178.745 22.2434C179.138 22.2434 179.468 22.1728 179.735 22.0318C180.016 21.8907 180.269 21.7002 180.494 21.4603L181 22.7302C180.691 23.0265 180.332 23.2593 179.925 23.4286C179.518 23.5838 179.054 23.6614 178.534 23.6614C177.747 23.6614 177.073 23.4427 176.511 23.0053C175.963 22.5679 175.689 21.8413 175.689 20.8254V10.3069L177.206 9.88361ZM180.831 12.8677V14.1799H173.708V12.8677H180.831Z" fill="#141414"/>
<path d="M166.848 23.6614C165.893 23.6614 165.043 23.4427 164.298 23.0053C163.568 22.5679 162.992 21.94 162.57 21.1217C162.149 20.2892 161.938 19.3016 161.938 18.1587C161.938 17.0159 162.142 16.0353 162.549 15.2169C162.971 14.3845 163.54 13.7495 164.256 13.3122C164.987 12.8748 165.816 12.6561 166.743 12.6561C167.684 12.6561 168.485 12.8677 169.146 13.291C169.806 13.7143 170.312 14.2928 170.663 15.0264C171.014 15.7601 171.19 16.5926 171.19 17.5238C171.19 17.7495 171.183 17.9471 171.169 18.1164C171.155 18.2857 171.141 18.4338 171.127 18.5608H162.928V17.2063H170.452L169.672 17.3756C169.672 16.6561 169.546 16.0494 169.293 15.5555C169.054 15.0476 168.71 14.6596 168.26 14.3915C167.825 14.1234 167.312 13.9894 166.722 13.9894C166.048 13.9894 165.457 14.1587 164.952 14.4973C164.46 14.836 164.081 15.3157 163.814 15.9365C163.547 16.5573 163.413 17.298 163.413 18.1587C163.413 19.0194 163.554 19.7601 163.835 20.3809C164.116 21.0017 164.509 21.4815 165.015 21.8201C165.535 22.1587 166.139 22.328 166.827 22.328C167.558 22.328 168.162 22.1728 168.64 21.8624C169.131 21.5379 169.518 21.1146 169.799 20.5926L171 21.291C170.747 21.7707 170.417 22.194 170.01 22.5608C169.616 22.9136 169.153 23.1887 168.619 23.3862C168.085 23.5696 167.495 23.6614 166.848 23.6614Z" fill="#141414"/>
<path d="M159.452 12.8677L155.09 17.418L154.731 17.7778L151.507 21.164V19.2593L157.534 12.8677H159.452ZM152.223 8V23.4497H150.706V8H152.223ZM155.216 16.6349L159.663 23.4497H157.829L153.973 17.5026L155.216 16.6349Z" fill="#141414"/>
<path d="M141.659 23.4497V12.8677H142.923L143.113 14.7301C143.366 14.067 143.759 13.5591 144.293 13.2063C144.827 12.8395 145.466 12.6561 146.211 12.6561C146.407 12.6561 146.604 12.6772 146.801 12.7196C146.998 12.7478 147.166 12.8113 147.307 12.91L147.054 14.2857C146.913 14.2152 146.752 14.1658 146.569 14.1375C146.4 14.0952 146.162 14.0741 145.853 14.0741C145.431 14.0741 145.01 14.2152 144.588 14.4973C144.181 14.7654 143.843 15.1675 143.576 15.7037C143.31 16.2398 143.176 16.8959 143.176 17.6719V23.4497H141.659Z" fill="#141414"/>
<path d="M135.55 16.5714C135.55 15.7672 135.339 15.1393 134.918 14.6878C134.496 14.2222 133.899 13.9894 133.126 13.9894C132.424 13.9894 131.827 14.1587 131.335 14.4973C130.843 14.8219 130.478 15.3439 130.239 16.0635L128.996 15.3016C129.277 14.4973 129.776 13.8554 130.492 13.3756C131.223 12.8959 132.115 12.6561 133.169 12.6561C133.913 12.6561 134.574 12.7901 135.15 13.0582C135.74 13.3122 136.203 13.7072 136.541 14.2434C136.892 14.7795 137.067 15.4568 137.067 16.2751V21.4391C137.067 22.0176 137.334 22.3069 137.868 22.3069C137.981 22.3069 138.107 22.2998 138.248 22.2857C138.388 22.2575 138.508 22.2222 138.606 22.1799L138.522 23.3862C138.409 23.4427 138.262 23.492 138.079 23.5344C137.91 23.5767 137.714 23.5979 137.489 23.5979C137.124 23.5979 136.786 23.5273 136.477 23.3862C136.182 23.231 135.943 22.9982 135.761 22.6878C135.592 22.3633 135.508 21.9612 135.508 21.4815V21.1852L135.887 21.2275C135.733 21.7778 135.459 22.2363 135.065 22.6032C134.686 22.9559 134.243 23.224 133.738 23.4074C133.246 23.5767 132.747 23.6614 132.241 23.6614C131.328 23.6614 130.548 23.4286 129.902 22.9629C129.256 22.4832 128.933 21.7707 128.933 20.8254C128.933 20.0635 129.171 19.4286 129.649 18.9206C130.141 18.3986 130.857 18.0388 131.799 17.8413L135.824 16.9947V18.2645L132.515 18.9841C131.827 19.1252 131.314 19.3298 130.977 19.5979C130.64 19.8659 130.471 20.2469 130.471 20.7407C130.471 21.2204 130.64 21.6084 130.977 21.9047C131.328 22.1869 131.827 22.328 132.473 22.328C132.852 22.328 133.225 22.2786 133.59 22.1799C133.955 22.067 134.286 21.8977 134.581 21.6719C134.876 21.4462 135.107 21.164 135.276 20.8254C135.459 20.4726 135.55 20.0564 135.55 19.5767V16.5714Z" fill="#141414"/>
<path d="M108.87 23.4497V12.8677H110.198L110.303 14.6666C110.654 13.9894 111.139 13.4885 111.757 13.164C112.376 12.8254 113.029 12.6561 113.717 12.6561C114.476 12.6561 115.178 12.8395 115.825 13.2063C116.471 13.5591 116.949 14.1093 117.258 14.8571C117.469 14.3633 117.771 13.9541 118.164 13.6296C118.571 13.3051 119.021 13.0652 119.513 12.91C120.005 12.7407 120.482 12.6561 120.946 12.6561C121.62 12.6561 122.252 12.7972 122.843 13.0793C123.433 13.3615 123.91 13.7989 124.276 14.3915C124.655 14.9841 124.845 15.739 124.845 16.6561V23.4497H123.327V16.8042C123.327 15.8166 123.081 15.104 122.59 14.6666C122.098 14.2152 121.494 13.9894 120.777 13.9894C120.215 13.9894 119.695 14.1305 119.218 14.4127C118.74 14.6949 118.354 15.104 118.059 15.6402C117.764 16.1763 117.616 16.8183 117.616 17.5661V23.4497H116.099V16.8042C116.099 15.8166 115.853 15.104 115.361 14.6666C114.869 14.2152 114.265 13.9894 113.549 13.9894C113.071 13.9894 112.586 14.1234 112.095 14.3915C111.603 14.6455 111.195 15.0476 110.872 15.5979C110.549 16.1481 110.387 16.8536 110.387 17.7143V23.4497H108.87Z" fill="#141414"/>
<path d="M100.194 23.6614C99.0422 23.6614 98.0447 23.4497 97.2017 23.0264C96.3587 22.589 95.7054 21.9612 95.2418 21.1428C94.7922 20.3104 94.5674 19.3157 94.5674 18.1587C94.5674 16.9876 94.7992 15.9929 95.2628 15.1746C95.7265 14.3562 96.3657 13.7354 97.1806 13.3122C98.0096 12.8748 98.9579 12.6561 100.026 12.6561C101.122 12.6561 102.056 12.8748 102.829 13.3122C103.601 13.7354 104.191 14.328 104.599 15.0899C105.006 15.8377 105.21 16.6984 105.21 17.6719C105.21 17.94 105.203 18.201 105.189 18.455C105.175 18.6949 105.154 18.8995 105.126 19.0688H96.8856V17.1428H103.545L101.838 17.7989C101.838 17.2346 101.768 16.7619 101.627 16.3809C101.501 15.9859 101.304 15.6896 101.037 15.492C100.77 15.2804 100.433 15.1746 100.026 15.1746C99.5902 15.1746 99.2178 15.2804 98.9088 15.492C98.5997 15.7037 98.3678 16.0353 98.2133 16.4868C98.0587 16.9383 97.9815 17.5167 97.9815 18.2222C97.9815 18.9136 98.0658 19.4779 98.2344 19.9153C98.417 20.3386 98.6699 20.649 98.993 20.8465C99.3302 21.03 99.7307 21.1217 100.194 21.1217C100.7 21.1217 101.115 21.0159 101.438 20.8042C101.761 20.5926 101.993 20.2963 102.133 19.9153L104.999 20.8677C104.803 21.4744 104.458 21.9894 103.967 22.4127C103.489 22.8219 102.92 23.1323 102.26 23.3439C101.613 23.5555 100.925 23.6614 100.194 23.6614Z" fill="#141414"/>
<path d="M89.3813 9.50262V19.6825C89.3813 20.1905 89.5007 20.5573 89.7395 20.783C89.9784 20.9947 90.3156 21.1005 90.7511 21.1005C91.0743 21.1005 91.3553 21.0582 91.5941 20.9735C91.833 20.8889 92.0507 20.776 92.2474 20.6349L92.6268 22.8571C92.2755 23.097 91.833 23.2945 91.2991 23.4497C90.7792 23.5908 90.2453 23.6614 89.6974 23.6614C88.5032 23.6614 87.5548 23.4074 86.8523 22.8994C86.1639 22.3774 85.8197 21.5026 85.8197 20.2751V10.4973L89.3813 9.50262ZM92.4582 12.8677V15.4286H84.0283V12.8677H92.4582Z" fill="#141414"/>
<path d="M81.4685 12.8677V23.4497H77.8859V12.8677H81.4685ZM79.6772 11.6402C78.9466 11.6402 78.4127 11.5062 78.0755 11.2381C77.7524 10.9559 77.5908 10.5185 77.5908 9.92594C77.5908 9.31924 77.7524 8.88185 78.0755 8.61377C78.4127 8.33158 78.9466 8.19049 79.6772 8.19049C80.4078 8.19049 80.9347 8.33158 81.2578 8.61377C81.595 8.88185 81.7636 9.31924 81.7636 9.92594C81.7636 10.5185 81.595 10.9559 81.2578 11.2381C80.9347 11.5062 80.4078 11.6402 79.6772 11.6402Z" fill="#141414"/>
<path d="M63.9199 23.4497V12.8677H67.1233L67.3129 16.5079L66.9125 16.1058C67.1233 14.9771 67.5658 14.1234 68.2402 13.545C68.9146 12.9524 69.7646 12.6561 70.7902 12.6561C71.5068 12.6561 72.132 12.7972 72.6659 13.0793C73.1998 13.3615 73.6142 13.7848 73.9093 14.3492C74.2184 14.8995 74.3729 15.5838 74.3729 16.4021V23.4497H70.7902V17.3545C70.7902 16.6349 70.6568 16.134 70.3898 15.8518C70.1229 15.5555 69.7716 15.4074 69.3361 15.4074C69.013 15.4074 68.7109 15.492 68.4299 15.6614C68.1489 15.8166 67.9241 16.0705 67.7555 16.4233C67.5869 16.776 67.5026 17.2487 67.5026 17.8413V23.4497H63.9199Z" fill="#141414"/>
<path d="M61.3249 10.0317L61.6199 12.4444C61.5215 12.4162 61.4302 12.4021 61.3459 12.4021C61.2616 12.388 61.1844 12.3809 61.1141 12.3809C60.51 12.3809 60.0534 12.5361 59.7443 12.8465C59.4492 13.1428 59.3017 13.5167 59.3017 13.9682L58.0372 13.5026C58.0372 12.91 58.1426 12.3527 58.3533 11.8307C58.5641 11.2945 58.8872 10.8571 59.3228 10.5185C59.7583 10.1799 60.3133 10.0106 60.9877 10.0106C61.0298 10.0106 61.079 10.0106 61.1352 10.0106C61.2054 10.0106 61.2687 10.0176 61.3249 10.0317ZM57.7422 21.1005C58.9364 21.1005 59.8567 21.3615 60.5029 21.8836C61.1633 22.3915 61.4934 23.1252 61.4934 24.0846C61.4934 24.9594 61.2546 25.686 60.7769 26.2645C60.3133 26.8571 59.6459 27.2945 58.7748 27.5767C57.9178 27.8589 56.9062 28 55.7401 28C53.8574 28 52.4946 27.7601 51.6516 27.2804C50.8227 26.8007 50.4082 26.1517 50.4082 25.3333C50.4082 24.7407 50.647 24.2539 51.1247 23.873C51.6024 23.5062 52.3822 23.3157 53.464 23.3016L53.3797 23.6402C52.5227 23.5273 51.8834 23.2663 51.4619 22.8571C51.0545 22.448 50.8508 21.9189 50.8508 21.2698C50.8508 20.6067 51.1177 20.0564 51.6516 19.619C52.1855 19.1816 52.881 18.9488 53.738 18.9206L55.0657 19.5344H54.7285C54.1946 19.5485 53.8153 19.6331 53.5905 19.7883C53.3657 19.9435 53.2533 20.1411 53.2533 20.3809C53.2533 20.6067 53.3446 20.783 53.5272 20.91C53.7239 21.037 54.019 21.1005 54.4124 21.1005H57.7422ZM55.7822 25.6719C56.4426 25.6719 56.9905 25.6226 57.426 25.5238C57.8616 25.4391 58.1847 25.3121 58.3955 25.1428C58.6062 24.9876 58.7116 24.8042 58.7116 24.5926C58.7116 24.3668 58.6273 24.1975 58.4587 24.0846C58.3042 23.9718 58.0442 23.9153 57.6789 23.9153H53.9487C53.6958 23.9153 53.4851 23.9859 53.3165 24.127C53.162 24.2681 53.0847 24.4444 53.0847 24.6561C53.0847 24.9665 53.3235 25.2134 53.8012 25.3968C54.2789 25.5802 54.9392 25.6719 55.7822 25.6719ZM55.8876 12.6561C56.9554 12.6561 57.8616 12.7972 58.6062 13.0793C59.3649 13.3615 59.941 13.7707 60.3343 14.3069C60.7418 14.843 60.9455 15.492 60.9455 16.2539C60.9455 17.0159 60.7418 17.6649 60.3343 18.201C59.941 18.7231 59.3649 19.1252 58.6062 19.4074C57.8616 19.6896 56.9554 19.8307 55.8876 19.8307C54.2297 19.8307 52.9723 19.5203 52.1152 18.8994C51.2723 18.2786 50.8508 17.3968 50.8508 16.2539C50.8508 15.492 51.0475 14.843 51.4409 14.3069C51.8343 13.7707 52.4033 13.3615 53.1479 13.0793C53.9066 12.7972 54.8198 12.6561 55.8876 12.6561ZM55.8876 14.709C55.438 14.709 55.0727 14.843 54.7917 15.1111C54.5107 15.3792 54.3702 15.7601 54.3702 16.2539C54.3702 16.7337 54.5107 17.1076 54.7917 17.3756C55.0727 17.6437 55.438 17.7778 55.8876 17.7778C56.3372 17.7778 56.7025 17.6437 56.9835 17.3756C57.2645 17.1076 57.405 16.7337 57.405 16.2539C57.405 15.7601 57.2645 15.3792 56.9835 15.1111C56.7025 14.843 56.3372 14.709 55.8876 14.709Z" fill="#141414"/>
<path d="M47.6248 9.48151V23.4498H44V9.48151H47.6248Z" fill="#141414"/>
</svg>
