<svg width="35" height="35" viewBox="0 0 35 35" fill="none" xmlns="http://www.w3.org/2000/svg">
<path fill-rule="evenodd" clip-rule="evenodd" d="M24.015 0.0390056C19.1586 1.48908 14.7416 1.47609 9.87732 0C7.4947 4.40374 4.40399 7.49428 0 9.87679C1.47611 14.7409 1.48925 19.1578 0.0394326 24.0138C4.46583 26.417 7.56264 29.5398 9.94764 34C14.7605 32.5522 19.1391 32.5393 23.9442 33.9613C26.3497 29.4783 29.4786 26.3493 33.9613 23.9438C32.5393 19.1384 32.5524 14.7596 34.0005 9.94643C29.5406 7.56156 26.418 4.46496 24.015 0.0390056ZM17.0004 29.1431C18.6251 19.9419 19.9421 18.6248 29.1432 17.0001C19.9421 15.3754 18.6251 14.0583 17.0004 4.85709C15.3756 14.0583 14.0586 15.3754 4.85721 17.0001C14.0586 18.6248 15.3756 19.9419 17.0004 29.1431Z" fill="#B14AB3"/>
</svg>
