<svg width="240" height="240" viewBox="0 0 240 240" fill="none" xmlns="http://www.w3.org/2000/svg">
<mask id="mask0_132_1318" style="mask-type:luminance" maskUnits="userSpaceOnUse" x="115" y="0" width="48" height="240">
<path d="M115.734 0.6875H162.147V239.406H115.734V0.6875Z" fill="white"/>
</mask>
<g mask="url(#mask0_132_1318)">
<mask id="mask1_132_1318" style="mask-type:luminance" maskUnits="userSpaceOnUse" x="115" y="0" width="48" height="240">
<path d="M136.332 0.6875H141.549C152.935 0.6875 162.147 11.2812 162.147 24.375V215.719C162.147 228.781 152.935 239.375 141.549 239.375H136.332C124.973 239.375 115.734 228.781 115.734 215.719V24.375C115.734 11.2812 124.973 0.6875 136.332 0.6875Z" fill="white"/>
</mask>
<g mask="url(#mask1_132_1318)">
<path d="M115.734 0.6875H162.147V239.406H115.734V0.6875Z" fill="#CB90FE"/>
</g>
</g>
<mask id="mask2_132_1318" style="mask-type:luminance" maskUnits="userSpaceOnUse" x="1" y="120" width="48" height="120">
<path d="M1.73926 120.031H48.1523V239.5H1.73926V120.031Z" fill="white"/>
</mask>
<g mask="url(#mask2_132_1318)">
<mask id="mask3_132_1318" style="mask-type:luminance" maskUnits="userSpaceOnUse" x="1" y="120" width="48" height="120">
<path d="M22.3371 120.031H27.5545C38.9403 120.031 48.1523 130.656 48.1523 143.719V215.719C48.1523 228.781 38.9403 239.375 27.5545 239.375H22.3371C10.9784 239.375 1.73926 228.781 1.73926 215.719V143.719C1.73926 130.656 10.9784 120.031 22.3371 120.031Z" fill="white"/>
</mask>
<g mask="url(#mask3_132_1318)">
<path d="M1.73926 120.031H48.1523V239.281H1.73926V120.031Z" fill="#CB90FE"/>
</g>
</g>
<mask id="mask4_132_1318" style="mask-type:luminance" maskUnits="userSpaceOnUse" x="58" y="60" width="48" height="180">
<path d="M58.75 60.375H105.163V239.438H58.75V60.375Z" fill="white"/>
</mask>
<g mask="url(#mask4_132_1318)">
<mask id="mask5_132_1318" style="mask-type:luminance" maskUnits="userSpaceOnUse" x="58" y="60" width="48" height="180">
<path d="M79.3478 60.375H84.5652C95.9239 60.375 105.163 70.9688 105.163 84.0625V215.719C105.163 228.781 95.9239 239.375 84.5652 239.375H79.3478C67.962 239.375 58.75 228.781 58.75 215.719V84.0625C58.75 70.9688 67.962 60.375 79.3478 60.375Z" fill="white"/>
</mask>
<g mask="url(#mask5_132_1318)">
<path d="M58.75 60.375H105.163V239.438H58.75V60.375Z" fill="#CB90FE"/>
</g>
</g>
<mask id="mask6_132_1318" style="mask-type:luminance" maskUnits="userSpaceOnUse" x="115" y="190" width="124" height="50">
<path d="M115.625 190.656H238.207V239.375H115.625V190.656Z" fill="white"/>
</mask>
<g mask="url(#mask6_132_1318)">
<mask id="mask7_132_1318" style="mask-type:luminance" maskUnits="userSpaceOnUse" x="115" y="190" width="124" height="50">
<path d="M238.206 214.344V215.688C238.206 228.75 228.994 239.375 217.609 239.375H136.277C124.918 239.375 115.679 228.75 115.679 215.688V214.344C115.679 201.281 124.918 190.656 136.277 190.656H217.609C228.994 190.656 238.206 201.281 238.206 214.344Z" fill="white"/>
</mask>
<g mask="url(#mask7_132_1318)">
<path d="M238.207 190.656V239.375H115.625V190.656H238.207Z" fill="#CB90FE"/>
</g>
</g>
</svg>
